<mxfile host="app.diagrams.net" agent="Mozilla/5.0 (Windows NT 10.0; Win64; x64) AppleWebKit/537.36 (KHTML, like Gecko) Chrome/136.0.0.0 Safari/537.36" version="27.0.8">
  <diagram name="Page-1" id="hEn-4YcYx3pwjlDkFy8Q">
    <mxGraphModel dx="610" dy="512" grid="1" gridSize="10" guides="1" tooltips="1" connect="1" arrows="1" fold="1" page="1" pageScale="1" pageWidth="850" pageHeight="1100" math="0" shadow="0">
      <root>
        <mxCell id="0" />
        <mxCell id="1" parent="0" />
        <mxCell id="Aw1DZqWnzIEfaL2U8dn3-109" value="&lt;b&gt;Class: Menu&amp;nbsp;&lt;/b&gt;" style="swimlane;fontStyle=0;childLayout=stackLayout;horizontal=1;startSize=26;fillColor=#F2CC8F;horizontalStack=0;resizeParent=1;resizeParentMax=0;resizeLast=0;collapsible=1;marginBottom=0;html=1;labelBackgroundColor=none;strokeColor=#E07A5F;fontColor=#393C56;" vertex="1" parent="1">
          <mxGeometry x="10" y="140" width="200" height="390" as="geometry" />
        </mxCell>
        <mxCell id="Aw1DZqWnzIEfaL2U8dn3-112" value="&lt;b&gt;Subclasses Implement Menu:&amp;nbsp;&lt;/b&gt;&lt;div&gt;&lt;br&gt;&lt;/div&gt;&lt;div&gt;Sandwich&lt;/div&gt;&lt;div&gt;-ingredients: Bread, Meats, Veggies, cheese, condiments&lt;/div&gt;&lt;div&gt;- size&lt;/div&gt;&lt;div&gt;&lt;font style=&quot;color: rgb(102, 102, 102);&quot;&gt;-price:&amp;nbsp;&lt;span style=&quot;background-color: transparent;&quot;&gt;$5.55, $7.77, $9.99&lt;/span&gt;&lt;/font&gt;&lt;/div&gt;&lt;div&gt;- extraMeat: $.55&lt;/div&gt;&lt;div&gt;-extraCheese: $.33&lt;/div&gt;&lt;div&gt;Drinks&lt;/div&gt;&lt;div&gt;-ingredients: (Find delicious juice recipes)&amp;nbsp;&lt;/div&gt;&lt;div&gt;-size: Small, Medium, Large&lt;/div&gt;&lt;div&gt;-price: $2.22, $3.33,&amp;nbsp; &amp;nbsp;$4.44&lt;/div&gt;&lt;div&gt;&lt;br&gt;&lt;/div&gt;&lt;div&gt;Chips&lt;/div&gt;&lt;div&gt;-ingredients: (Healthy chips)&lt;/div&gt;&lt;div&gt;-size: 6&quot; , 8&quot;, 12&quot;&amp;nbsp;&lt;/div&gt;&lt;div&gt;-price: $1.11&lt;/div&gt;&lt;div&gt;&lt;br&gt;&lt;/div&gt;&lt;div&gt;Combo Meal: $8.88&lt;/div&gt;&lt;div&gt;-6&#39;&#39; sandwich(MoodBased ONLY)&amp;nbsp;&lt;/div&gt;&lt;div&gt;-chips&lt;/div&gt;&lt;div&gt;-medium drink&lt;/div&gt;&lt;div&gt;&lt;br&gt;&lt;/div&gt;" style="text;strokeColor=none;fillColor=none;align=left;verticalAlign=top;spacingLeft=4;spacingRight=4;overflow=hidden;rotatable=0;points=[[0,0.5],[1,0.5]];portConstraint=eastwest;whiteSpace=wrap;html=1;labelBackgroundColor=none;fontColor=#393C56;" vertex="1" parent="Aw1DZqWnzIEfaL2U8dn3-109">
          <mxGeometry y="26" width="200" height="364" as="geometry" />
        </mxCell>
        <mxCell id="Aw1DZqWnzIEfaL2U8dn3-113" value="&lt;b&gt;Class: com.thedivinedeli.app.Order&lt;/b&gt;" style="swimlane;fontStyle=0;childLayout=stackLayout;horizontal=1;startSize=26;fillColor=#F2CC8F;horizontalStack=0;resizeParent=1;resizeParentMax=0;resizeLast=0;collapsible=1;marginBottom=0;html=1;strokeColor=#E07A5F;labelBackgroundColor=none;fontColor=#393C56;fillStyle=auto;" vertex="1" parent="1">
          <mxGeometry x="260" y="420" width="200" height="240" as="geometry" />
        </mxCell>
        <mxCell id="Aw1DZqWnzIEfaL2U8dn3-115" value="addSandwhich()List&amp;lt;Sandwiches&amp;gt;&lt;div&gt;&lt;br&gt;&lt;/div&gt;&lt;div&gt;addCustomSandwich List&amp;lt;customSandwich&amp;gt;&lt;/div&gt;&lt;div&gt;&lt;div&gt;&lt;br&gt;&lt;/div&gt;&lt;div&gt;addDrinks() List &amp;lt;Drinks&amp;gt;&lt;/div&gt;&lt;div&gt;&lt;br&gt;&lt;/div&gt;&lt;div&gt;addChips() List&amp;lt;Chips&amp;gt;&lt;/div&gt;&lt;/div&gt;&lt;div&gt;&lt;br&gt;&lt;/div&gt;&lt;div&gt;Checkout() Confirm or Cancel&lt;/div&gt;&lt;div&gt;&lt;br&gt;&lt;/div&gt;&lt;div&gt;Cancel com.thedivinedeli.app.Order &amp;gt;&amp;gt;&amp;gt; go back to homescreen&lt;/div&gt;" style="text;strokeColor=none;fillColor=none;align=left;verticalAlign=top;spacingLeft=4;spacingRight=4;overflow=hidden;rotatable=0;points=[[0,0.5],[1,0.5]];portConstraint=eastwest;whiteSpace=wrap;html=1;labelBackgroundColor=none;fontColor=#393C56;" vertex="1" parent="Aw1DZqWnzIEfaL2U8dn3-113">
          <mxGeometry y="26" width="200" height="214" as="geometry" />
        </mxCell>
        <mxCell id="Aw1DZqWnzIEfaL2U8dn3-149" style="edgeStyle=none;curved=1;rounded=0;orthogonalLoop=1;jettySize=auto;html=1;exitX=-0.015;exitY=0.474;exitDx=0;exitDy=0;entryX=0.708;entryY=-0.004;entryDx=0;entryDy=0;entryPerimeter=0;fontSize=12;startSize=8;endSize=8;exitPerimeter=0;labelBackgroundColor=none;strokeColor=#E07A5F;fontColor=default;" edge="1" parent="1" source="Aw1DZqWnzIEfaL2U8dn3-147" target="Aw1DZqWnzIEfaL2U8dn3-113">
          <mxGeometry relative="1" as="geometry" />
        </mxCell>
        <mxCell id="Aw1DZqWnzIEfaL2U8dn3-172" value="order custom sandwich" style="edgeLabel;html=1;align=center;verticalAlign=middle;resizable=0;points=[];fontSize=12;rotation=0;labelBackgroundColor=none;fontColor=#393C56;" vertex="1" connectable="0" parent="Aw1DZqWnzIEfaL2U8dn3-149">
          <mxGeometry x="-0.1903" relative="1" as="geometry">
            <mxPoint as="offset" />
          </mxGeometry>
        </mxCell>
        <mxCell id="Aw1DZqWnzIEfaL2U8dn3-150" style="edgeStyle=none;curved=1;rounded=0;orthogonalLoop=1;jettySize=auto;html=1;exitX=1;exitY=0.5;exitDx=0;exitDy=0;fontSize=12;startSize=8;endSize=8;labelBackgroundColor=none;strokeColor=#E07A5F;fontColor=default;" edge="1" parent="1" source="Aw1DZqWnzIEfaL2U8dn3-112" target="Aw1DZqWnzIEfaL2U8dn3-113">
          <mxGeometry relative="1" as="geometry">
            <Array as="points">
              <mxPoint x="230" y="350" />
              <mxPoint x="250" y="373" />
            </Array>
          </mxGeometry>
        </mxCell>
        <mxCell id="Aw1DZqWnzIEfaL2U8dn3-171" value="com.thedivinedeli.app.Order From Menu" style="edgeLabel;html=1;align=center;verticalAlign=middle;resizable=0;points=[];fontSize=12;labelBackgroundColor=none;fontColor=#393C56;" vertex="1" connectable="0" parent="Aw1DZqWnzIEfaL2U8dn3-150">
          <mxGeometry x="-0.1772" relative="1" as="geometry">
            <mxPoint x="14" as="offset" />
          </mxGeometry>
        </mxCell>
        <mxCell id="Aw1DZqWnzIEfaL2U8dn3-123" value="Class: Mood Engine" style="swimlane;startSize=23;labelBackgroundColor=none;fillColor=#F2CC8F;strokeColor=#E07A5F;fontColor=#393C56;" vertex="1" parent="1">
          <mxGeometry x="520" y="240" width="430" height="300" as="geometry" />
        </mxCell>
        <mxCell id="Aw1DZqWnzIEfaL2U8dn3-126" value="&lt;font style=&quot;font-size: 9px;&quot;&gt;&lt;b style=&quot;&quot;&gt;moodBased sandwich()&lt;/b&gt;&lt;/font&gt;" style="swimlane;fontStyle=0;childLayout=stackLayout;horizontal=1;startSize=30;horizontalStack=0;resizeParent=1;resizeParentMax=0;resizeLast=0;collapsible=1;marginBottom=0;whiteSpace=wrap;html=1;labelBackgroundColor=none;fillColor=#F2CC8F;strokeColor=#E07A5F;fontColor=#393C56;" vertex="1" parent="Aw1DZqWnzIEfaL2U8dn3-123">
          <mxGeometry x="170" y="120" width="95" height="180" as="geometry">
            <mxRectangle x="390" y="320" width="110" height="30" as="alternateBounds" />
          </mxGeometry>
        </mxCell>
        <mxCell id="Aw1DZqWnzIEfaL2U8dn3-148" value="&lt;div style=&quot;line-height: 60%;&quot;&gt;&lt;font style=&quot;font-size: 7px; line-height: 60%;&quot;&gt;String userMood:&amp;nbsp;&lt;/font&gt;&lt;/div&gt;&lt;div style=&quot;line-height: 60%;&quot;&gt;&lt;span style=&quot;font-size: 7px; background-color: transparent; color: light-dark(rgb(0, 0, 0), rgb(255, 255, 255));&quot;&gt;happy&amp;nbsp;&lt;/span&gt;&lt;/div&gt;&lt;div style=&quot;line-height: 60%;&quot;&gt;&lt;span style=&quot;font-size: 7px; background-color: transparent; color: light-dark(rgb(0, 0, 0), rgb(255, 255, 255));&quot;&gt;angry&amp;nbsp;&lt;/span&gt;&lt;/div&gt;&lt;div style=&quot;line-height: 60%;&quot;&gt;&lt;span style=&quot;font-size: 7px; background-color: transparent; color: light-dark(rgb(0, 0, 0), rgb(255, 255, 255));&quot;&gt;calm&lt;/span&gt;&lt;/div&gt;&lt;div style=&quot;line-height: 60%;&quot;&gt;&lt;span style=&quot;font-size: 7px; background-color: transparent; color: light-dark(rgb(0, 0, 0), rgb(255, 255, 255));&quot;&gt;sad&amp;nbsp;&lt;/span&gt;&lt;div&gt;&lt;font style=&quot;font-size: 7px; line-height: 60%;&quot;&gt;adventurous&lt;/font&gt;&lt;/div&gt;&lt;div&gt;&lt;font style=&quot;font-size: 7px; line-height: 60%;&quot;&gt;&lt;br&gt;&lt;/font&gt;&lt;/div&gt;&lt;div style=&quot;text-align: left;&quot;&gt;&lt;font style=&quot;font-size: 9px;&quot;&gt;-double Price&lt;/font&gt;&lt;/div&gt;&lt;div style=&quot;text-align: left;&quot;&gt;&lt;font style=&quot;font-size: 9px;&quot;&gt;-int Size&lt;/font&gt;&lt;/div&gt;&lt;div style=&quot;text-align: left;&quot;&gt;&lt;font style=&quot;font-size: 9px;&quot;&gt;-String Ingredients&lt;/font&gt;&lt;/div&gt;&lt;div&gt;&lt;br&gt;&lt;/div&gt;&lt;div&gt;&lt;font style=&quot;font-size: 7px; line-height: 60%;&quot;&gt;&amp;nbsp;&lt;/font&gt;&lt;/div&gt;&lt;/div&gt;" style="text;html=1;align=center;verticalAlign=middle;resizable=0;points=[];autosize=1;strokeColor=none;fillColor=none;fontSize=16;labelBackgroundColor=none;fontColor=#393C56;" vertex="1" parent="Aw1DZqWnzIEfaL2U8dn3-126">
          <mxGeometry y="30" width="95" height="150" as="geometry" />
        </mxCell>
        <mxCell id="Aw1DZqWnzIEfaL2U8dn3-138" value="&lt;span style=&quot;font-size: 10px;&quot;&gt;&lt;b&gt;showFullMenu()&lt;/b&gt;&lt;/span&gt;" style="swimlane;fontStyle=0;childLayout=stackLayout;horizontal=1;startSize=30;horizontalStack=0;resizeParent=1;resizeParentMax=0;resizeLast=0;collapsible=1;marginBottom=0;whiteSpace=wrap;html=1;labelBackgroundColor=none;fillColor=#F2CC8F;strokeColor=#E07A5F;fontColor=#393C56;" vertex="1" parent="Aw1DZqWnzIEfaL2U8dn3-123">
          <mxGeometry x="310" y="75" width="90" height="90" as="geometry" />
        </mxCell>
        <mxCell id="Aw1DZqWnzIEfaL2U8dn3-135" value="&lt;font style=&quot;font-size: 10px;&quot;&gt;&lt;b&gt;buildCustomSandwhich()&lt;/b&gt;&lt;/font&gt;" style="swimlane;fontStyle=0;childLayout=stackLayout;horizontal=1;startSize=30;horizontalStack=0;resizeParent=1;resizeParentMax=0;resizeLast=0;collapsible=1;marginBottom=0;whiteSpace=wrap;html=1;labelBackgroundColor=none;fillColor=#F2CC8F;strokeColor=#E07A5F;fontColor=#393C56;" vertex="1" parent="Aw1DZqWnzIEfaL2U8dn3-123">
          <mxGeometry x="20" y="90" width="130" height="100" as="geometry" />
        </mxCell>
        <mxCell id="Aw1DZqWnzIEfaL2U8dn3-147" value="&lt;font style=&quot;font-size: 10px;&quot;&gt;-Ingredients&lt;/font&gt;&lt;div&gt;&lt;font style=&quot;font-size: 10px;&quot;&gt;-Price&lt;/font&gt;&lt;/div&gt;&lt;div&gt;&lt;font style=&quot;font-size: 10px;&quot;&gt;-Size&lt;/font&gt;&lt;/div&gt;" style="text;html=1;align=center;verticalAlign=middle;resizable=0;points=[];autosize=1;strokeColor=none;fillColor=none;fontSize=16;labelBackgroundColor=none;fontColor=#393C56;" vertex="1" parent="Aw1DZqWnzIEfaL2U8dn3-135">
          <mxGeometry y="30" width="130" height="70" as="geometry" />
        </mxCell>
        <mxCell id="Aw1DZqWnzIEfaL2U8dn3-156" value="" style="endArrow=classic;html=1;rounded=0;fontSize=12;startSize=8;endSize=8;curved=1;labelBackgroundColor=none;strokeColor=#E07A5F;fontColor=default;" edge="1" parent="Aw1DZqWnzIEfaL2U8dn3-123">
          <mxGeometry relative="1" as="geometry">
            <mxPoint x="240" y="30" as="sourcePoint" />
            <mxPoint x="310" y="110" as="targetPoint" />
          </mxGeometry>
        </mxCell>
        <mxCell id="Aw1DZqWnzIEfaL2U8dn3-157" value="User Can" style="edgeLabel;resizable=0;html=1;;align=center;verticalAlign=middle;labelBackgroundColor=none;fontColor=#393C56;" connectable="0" vertex="1" parent="Aw1DZqWnzIEfaL2U8dn3-156">
          <mxGeometry relative="1" as="geometry" />
        </mxCell>
        <mxCell id="Aw1DZqWnzIEfaL2U8dn3-159" value="" style="endArrow=classic;html=1;rounded=0;fontSize=12;startSize=8;endSize=8;curved=1;labelBackgroundColor=none;strokeColor=#E07A5F;fontColor=default;" edge="1" parent="Aw1DZqWnzIEfaL2U8dn3-123">
          <mxGeometry relative="1" as="geometry">
            <mxPoint x="220" y="30" as="sourcePoint" />
            <mxPoint x="200" y="110" as="targetPoint" />
            <Array as="points">
              <mxPoint x="220" y="60" />
            </Array>
          </mxGeometry>
        </mxCell>
        <mxCell id="Aw1DZqWnzIEfaL2U8dn3-160" value="User Can" style="edgeLabel;resizable=0;html=1;;align=center;verticalAlign=middle;labelBackgroundColor=none;fontColor=#393C56;" connectable="0" vertex="1" parent="Aw1DZqWnzIEfaL2U8dn3-159">
          <mxGeometry relative="1" as="geometry" />
        </mxCell>
        <mxCell id="Aw1DZqWnzIEfaL2U8dn3-161" value="" style="endArrow=classic;html=1;rounded=0;fontSize=12;startSize=8;endSize=8;curved=1;entryX=0.583;entryY=-0.036;entryDx=0;entryDy=0;entryPerimeter=0;labelBackgroundColor=none;strokeColor=#E07A5F;fontColor=default;" edge="1" parent="Aw1DZqWnzIEfaL2U8dn3-123" target="Aw1DZqWnzIEfaL2U8dn3-135">
          <mxGeometry relative="1" as="geometry">
            <mxPoint x="190" y="30" as="sourcePoint" />
            <mxPoint x="210" y="110" as="targetPoint" />
          </mxGeometry>
        </mxCell>
        <mxCell id="Aw1DZqWnzIEfaL2U8dn3-162" value="User Can" style="edgeLabel;resizable=0;html=1;;align=center;verticalAlign=middle;labelBackgroundColor=none;fontColor=#393C56;" connectable="0" vertex="1" parent="Aw1DZqWnzIEfaL2U8dn3-161">
          <mxGeometry relative="1" as="geometry" />
        </mxCell>
        <mxCell id="Aw1DZqWnzIEfaL2U8dn3-163" value="&lt;b&gt;Class: Home Screen&lt;/b&gt;" style="swimlane;fontStyle=0;childLayout=stackLayout;horizontal=1;startSize=26;fillColor=#fff2cc;horizontalStack=0;resizeParent=1;resizeParentMax=0;resizeLast=0;collapsible=1;marginBottom=0;html=1;labelBackgroundColor=none;strokeColor=#d6b656;" vertex="1" parent="1">
          <mxGeometry x="260" y="130" width="200" height="100" as="geometry" />
        </mxCell>
        <mxCell id="Aw1DZqWnzIEfaL2U8dn3-164" value="New order()&amp;nbsp;&lt;div&gt;-Straight to menu&lt;/div&gt;&lt;div&gt;-To Mood Engine&amp;nbsp;&lt;br&gt;&lt;div&gt;Exit() - exit app&lt;/div&gt;&lt;div&gt;&lt;br&gt;&lt;/div&gt;&lt;/div&gt;" style="text;strokeColor=none;fillColor=none;align=left;verticalAlign=top;spacingLeft=4;spacingRight=4;overflow=hidden;rotatable=0;points=[[0,0.5],[1,0.5]];portConstraint=eastwest;whiteSpace=wrap;html=1;labelBackgroundColor=none;fontColor=#393C56;" vertex="1" parent="Aw1DZqWnzIEfaL2U8dn3-163">
          <mxGeometry y="26" width="200" height="74" as="geometry" />
        </mxCell>
        <mxCell id="Aw1DZqWnzIEfaL2U8dn3-167" value="" style="endArrow=classic;html=1;rounded=0;fontSize=12;startSize=8;endSize=8;curved=1;labelBackgroundColor=none;strokeColor=#E07A5F;fontColor=default;" edge="1" parent="1">
          <mxGeometry relative="1" as="geometry">
            <mxPoint x="460" y="182.57999999999998" as="sourcePoint" />
            <mxPoint x="580" y="240" as="targetPoint" />
            <Array as="points">
              <mxPoint x="590" y="160" />
            </Array>
          </mxGeometry>
        </mxCell>
        <mxCell id="Aw1DZqWnzIEfaL2U8dn3-168" value="For Custom or moodBased option" style="edgeLabel;resizable=0;html=1;;align=center;verticalAlign=middle;labelBackgroundColor=none;fontColor=#393C56;" connectable="0" vertex="1" parent="Aw1DZqWnzIEfaL2U8dn3-167">
          <mxGeometry relative="1" as="geometry">
            <mxPoint x="-5" y="26" as="offset" />
          </mxGeometry>
        </mxCell>
        <mxCell id="Aw1DZqWnzIEfaL2U8dn3-169" value="" style="endArrow=classic;html=1;rounded=0;fontSize=12;startSize=8;endSize=8;curved=1;exitX=0.55;exitY=0;exitDx=0;exitDy=0;exitPerimeter=0;labelBackgroundColor=none;strokeColor=#E07A5F;fontColor=default;" edge="1" parent="1">
          <mxGeometry relative="1" as="geometry">
            <mxPoint x="360" y="140" as="sourcePoint" />
            <mxPoint x="190" y="140" as="targetPoint" />
            <Array as="points">
              <mxPoint x="370" y="50" />
            </Array>
          </mxGeometry>
        </mxCell>
        <mxCell id="Aw1DZqWnzIEfaL2U8dn3-170" value="For Full Menu" style="edgeLabel;resizable=0;html=1;;align=center;verticalAlign=middle;rotation=-45;labelBackgroundColor=none;fontColor=#393C56;" connectable="0" vertex="1" parent="Aw1DZqWnzIEfaL2U8dn3-169">
          <mxGeometry relative="1" as="geometry">
            <mxPoint x="-5" y="26" as="offset" />
          </mxGeometry>
        </mxCell>
        <mxCell id="Aw1DZqWnzIEfaL2U8dn3-174" style="edgeStyle=none;curved=1;rounded=0;orthogonalLoop=1;jettySize=auto;html=1;exitX=0.011;exitY=0.421;exitDx=0;exitDy=0;entryX=0.708;entryY=-0.004;entryDx=0;entryDy=0;entryPerimeter=0;fontSize=12;startSize=8;endSize=8;exitPerimeter=0;labelBackgroundColor=none;strokeColor=#E07A5F;fontColor=default;" edge="1" parent="1" source="Aw1DZqWnzIEfaL2U8dn3-148">
          <mxGeometry relative="1" as="geometry">
            <mxPoint x="596" y="524" as="sourcePoint" />
            <mxPoint x="460" y="550" as="targetPoint" />
          </mxGeometry>
        </mxCell>
        <mxCell id="Aw1DZqWnzIEfaL2U8dn3-175" value="order moodbased sandwhich" style="edgeLabel;html=1;align=center;verticalAlign=middle;resizable=0;points=[];fontSize=12;rotation=-20;labelBackgroundColor=none;fontColor=#393C56;" vertex="1" connectable="0" parent="Aw1DZqWnzIEfaL2U8dn3-174">
          <mxGeometry x="-0.1903" relative="1" as="geometry">
            <mxPoint x="-17" y="8" as="offset" />
          </mxGeometry>
        </mxCell>
        <mxCell id="Aw1DZqWnzIEfaL2U8dn3-176" style="edgeStyle=none;curved=1;rounded=0;orthogonalLoop=1;jettySize=auto;html=1;entryX=1.002;entryY=0.797;entryDx=0;entryDy=0;entryPerimeter=0;fontSize=12;startSize=8;endSize=8;labelBackgroundColor=none;strokeColor=#E07A5F;fontColor=default;" edge="1" parent="1" source="Aw1DZqWnzIEfaL2U8dn3-138" target="Aw1DZqWnzIEfaL2U8dn3-115">
          <mxGeometry relative="1" as="geometry">
            <Array as="points">
              <mxPoint x="850" y="660" />
            </Array>
          </mxGeometry>
        </mxCell>
        <mxCell id="Aw1DZqWnzIEfaL2U8dn3-177" value="order from full menu" style="edgeLabel;html=1;align=center;verticalAlign=middle;resizable=0;points=[];fontSize=12;labelBackgroundColor=none;fontColor=#393C56;" vertex="1" connectable="0" parent="Aw1DZqWnzIEfaL2U8dn3-176">
          <mxGeometry x="0.627" y="-6" relative="1" as="geometry">
            <mxPoint x="178" y="-44" as="offset" />
          </mxGeometry>
        </mxCell>
      </root>
    </mxGraphModel>
  </diagram>
</mxfile>
